<svg viewBox="0 0 100 100" xmlns="http://www.w3.org/2000/svg">
  <!-- Achtergrond -->
  <rect width="100" height="100" rx="20" fill="#FFB347"/>

  <!-- Kattenkop -->
  <ellipse cx="50" cy="55" rx="30" ry="25" fill="#FFF9F0"/>

  <!-- Oren -->
  <polygon points="25,38 32,18 42,38" fill="#FFF9F0"/>
  <polygon points="58,38 68,18 75,38" fill="#FFF9F0"/>
  <polygon points="28,36 32,22 38,36" fill="#FFD1A3"/>
  <polygon points="62,36 68,22 72,36" fill="#FFD1A3"/>

  <!-- Ogen -->
  <ellipse cx="38" cy="50" rx="6" ry="8" fill="#333"/>
  <ellipse cx="62" cy="50" rx="6" ry="8" fill="#333"/>
  <circle cx="36" cy="48" r="2" fill="white"/>
  <circle cx="60" cy="48" r="2" fill="white"/>

  <!-- Neus -->
  <ellipse cx="50" cy="60" rx="4" ry="3" fill="#FF8C94"/>

  <!-- Mond -->
  <path d="M50,63 Q46,68 42,66" stroke="#333" stroke-width="2" fill="none" stroke-linecap="round"/>
  <path d="M50,63 Q54,68 58,66" stroke="#333" stroke-width="2" fill="none" stroke-linecap="round"/>

  <!-- Snorharen -->
  <line x1="18" y1="55" x2="32" y2="57" stroke="#333" stroke-width="1.5" stroke-linecap="round"/>
  <line x1="18" y1="60" x2="32" y2="60" stroke="#333" stroke-width="1.5" stroke-linecap="round"/>
  <line x1="68" y1="57" x2="82" y2="55" stroke="#333" stroke-width="1.5" stroke-linecap="round"/>
  <line x1="68" y1="60" x2="82" y2="60" stroke="#333" stroke-width="1.5" stroke-linecap="round"/>
</svg>
